<mxfile host="app.diagrams.net" agent="Mozilla/5.0 (Windows NT 10.0; Win64; x64) AppleWebKit/537.36 (KHTML, like Gecko) Chrome/133.0.0.0 Safari/537.36 Edg/133.0.0.0" version="26.0.16">
  <diagram name="第 1 页" id="glGqaVGUNq5CBYK8pC5B">
    <mxGraphModel dx="1791" dy="1065" grid="1" gridSize="10" guides="1" tooltips="1" connect="1" arrows="1" fold="1" page="1" pageScale="1" pageWidth="827" pageHeight="1169" math="0" shadow="0">
      <root>
        <mxCell id="0" />
        <mxCell id="1" parent="0" />
        <mxCell id="nGAL2BN9WlCMGJwkiCHQ-7" value="" style="edgeStyle=orthogonalEdgeStyle;rounded=0;orthogonalLoop=1;jettySize=auto;html=1;fontStyle=0;fontFamily=宋体;fontColor=default;" edge="1" parent="1" source="nGAL2BN9WlCMGJwkiCHQ-1" target="nGAL2BN9WlCMGJwkiCHQ-2">
          <mxGeometry relative="1" as="geometry" />
        </mxCell>
        <mxCell id="nGAL2BN9WlCMGJwkiCHQ-1" value="&lt;p class=&quot;MsoNormal&quot; align=&quot;justify&quot; style=&quot;text-indent:21.0000pt;mso-char-indent-count:0.0000;text-align:justify;&lt;br/&gt;text-justify:inter-ideograph;&quot;&gt;&lt;span style=&quot;&quot;&gt;&lt;font&gt;&lt;font&gt;S1:&lt;/font&gt;&lt;font&gt;构建输电线路绝缘子缺陷的图像数据集，并划分为训练集，验证集、测试集以及验证集；&lt;/font&gt;&lt;/font&gt;&lt;/span&gt;&lt;span style=&quot;&quot;&gt;&lt;/span&gt;&lt;/p&gt;" style="rounded=1;whiteSpace=wrap;html=1;fontSize=17;fontStyle=0;fontFamily=宋体;fontColor=default;" vertex="1" parent="1">
          <mxGeometry x="209" y="220" width="410" height="70" as="geometry" />
        </mxCell>
        <mxCell id="nGAL2BN9WlCMGJwkiCHQ-8" value="" style="edgeStyle=orthogonalEdgeStyle;rounded=0;orthogonalLoop=1;jettySize=auto;html=1;fontStyle=0;fontFamily=宋体;fontColor=default;" edge="1" parent="1" source="nGAL2BN9WlCMGJwkiCHQ-2" target="nGAL2BN9WlCMGJwkiCHQ-3">
          <mxGeometry relative="1" as="geometry" />
        </mxCell>
        <mxCell id="nGAL2BN9WlCMGJwkiCHQ-2" value="&lt;p class=&quot;MsoNormal&quot;&gt;&lt;span style=&quot;&quot;&gt;S2:构建WFE-YOLO&lt;/span&gt;&lt;span style=&quot;&quot;&gt;网络模型，&lt;/span&gt;&lt;span style=&quot;&quot;&gt;该模型分为主干网络、颈部网络和头部网络；&lt;/span&gt;&lt;/p&gt;" style="rounded=1;whiteSpace=wrap;html=1;fontSize=17;fontStyle=0;fontFamily=宋体;fontColor=default;" vertex="1" parent="1">
          <mxGeometry x="209" y="330" width="410" height="70" as="geometry" />
        </mxCell>
        <mxCell id="nGAL2BN9WlCMGJwkiCHQ-9" value="" style="edgeStyle=orthogonalEdgeStyle;rounded=0;orthogonalLoop=1;jettySize=auto;html=1;fontStyle=0;fontFamily=宋体;fontColor=default;" edge="1" parent="1" source="nGAL2BN9WlCMGJwkiCHQ-3" target="nGAL2BN9WlCMGJwkiCHQ-4">
          <mxGeometry relative="1" as="geometry" />
        </mxCell>
        <mxCell id="nGAL2BN9WlCMGJwkiCHQ-3" value="&lt;p class=&quot;MsoNormal&quot;&gt;&lt;span style=&quot;&quot;&gt;&lt;font&gt;S3&lt;/font&gt;&lt;font&gt;：&lt;/font&gt;&lt;/span&gt;&lt;span style=&quot;&quot;&gt;利用训练集的绝缘子缺陷图像对&lt;/span&gt;WFE-YOLO&lt;span style=&quot;&quot;&gt;网络模型&lt;/span&gt;&lt;span style=&quot;&quot;&gt;&lt;font&gt;进行训练，并利用验证集&lt;/font&gt;&lt;font&gt;的绝缘子缺陷图像在训练过程中评估&lt;/font&gt;&lt;/span&gt;WFE-YOLO&lt;span style=&quot;&quot;&gt;网络模型&lt;/span&gt;&lt;span style=&quot;&quot;&gt;的性能&lt;/span&gt;&lt;span style=&quot;&quot;&gt;；&lt;/span&gt;&lt;/p&gt;" style="rounded=1;whiteSpace=wrap;html=1;fontSize=17;fontStyle=0;fontFamily=宋体;fontColor=default;" vertex="1" parent="1">
          <mxGeometry x="209" y="450" width="410" height="110" as="geometry" />
        </mxCell>
        <mxCell id="nGAL2BN9WlCMGJwkiCHQ-4" value="&lt;p class=&quot;MsoNormal&quot; align=&quot;justify&quot; style=&quot;text-indent:21.0000pt;mso-char-indent-count:0.0000;text-align:justify;&lt;br/&gt;text-justify:inter-ideograph;&quot;&gt;&lt;span style=&quot;&quot;&gt;S4：将待测绝缘子缺陷图像输入至训练好的&lt;/span&gt;&lt;span style=&quot;text-align: center; text-indent: 0px;&quot;&gt;WFE-YOLO网络&lt;/span&gt;&lt;span style=&quot;&quot;&gt;模型&lt;/span&gt;&lt;span style=&quot;&quot;&gt;&lt;font&gt;进行绝缘子缺陷的&lt;/font&gt;&lt;font&gt;检测。&lt;/font&gt;&lt;/span&gt;&lt;span style=&quot;&quot;&gt;&lt;/span&gt;&lt;/p&gt;" style="rounded=1;whiteSpace=wrap;html=1;fontSize=17;fontStyle=0;fontFamily=宋体;fontColor=default;" vertex="1" parent="1">
          <mxGeometry x="209" y="610" width="410" height="70" as="geometry" />
        </mxCell>
      </root>
    </mxGraphModel>
  </diagram>
</mxfile>
